<svg width="40" height="40" viewBox="0 0 40 40" fill="none" xmlns="http://www.w3.org/2000/svg">
<path opacity="0.4" d="M37.7618 35.4517H25.1079C23.8733 35.4517 22.8691 36.4717 22.8691 37.7258C22.8691 38.9824 23.8733 40 25.1079 40H37.7618C38.9964 40 40.0005 38.9824 40.0005 37.7258C40.0005 36.4717 38.9964 35.4517 37.7618 35.4517Z" fill="white"/>
<path d="M16.2423 8.67528L28.2331 18.3644C28.5223 18.5961 28.5717 19.0213 28.346 19.3175L14.1305 37.8405C13.2369 38.9847 11.92 39.6321 10.5091 39.656L2.7488 39.7516C2.33492 39.7563 1.97277 39.4697 1.87871 39.0588L0.115011 31.3906C-0.190697 29.9812 0.11501 28.5241 1.00862 27.4013L15.2946 8.78995C15.525 8.49135 15.9507 8.43879 16.2423 8.67528Z" fill="white"/>
<path opacity="0.4" d="M33.6005 12.5899L31.2889 15.4756C31.0561 15.7694 30.6375 15.8172 30.3483 15.5831C27.5381 13.3089 20.3422 7.47299 18.3457 5.85575C18.0541 5.61687 18.0142 5.19166 18.2493 4.89544L20.4786 2.12679C22.501 -0.477029 26.0284 -0.715912 28.8738 1.55347L32.1426 4.1573C33.483 5.20838 34.3766 6.5939 34.6823 8.05109C35.035 9.65399 34.6588 11.2282 33.6005 12.5899Z" fill="white"/>
</svg>
