<svg width="200" height="80" viewBox="0 0 200 80" fill="none" xmlns="http://www.w3.org/2000/svg">
<path d="M66.72 29.48C64.56 29.48 62.5467 29.1333 60.68 28.44C58.84 27.72 57.24 26.7067 55.88 25.4C54.52 24.0933 53.4533 22.56 52.68 20.8C51.9333 19.04 51.56 17.1067 51.56 15C51.56 12.8933 51.9333 10.96 52.68 9.2C53.4533 7.44 54.52 5.90667 55.88 4.6C57.2667 3.29333 58.88 2.29333 60.72 1.6C62.56 0.879999 64.5733 0.52 66.76 0.52C69.1867 0.52 71.3733 0.946666 73.32 1.8C75.2933 2.62667 76.9467 3.85333 78.28 5.48L74.12 9.32C73.16 8.22667 72.0933 7.41333 70.92 6.88C69.7467 6.32 68.4667 6.04 67.08 6.04C65.7733 6.04 64.5733 6.25333 63.48 6.68C62.3867 7.10666 61.44 7.72 60.64 8.52C59.84 9.32 59.2133 10.2667 58.76 11.36C58.3333 12.4533 58.12 13.6667 58.12 15C58.12 16.3333 58.3333 17.5467 58.76 18.64C59.2133 19.7333 59.84 20.68 60.64 21.48C61.44 22.28 62.3867 22.8933 63.48 23.32C64.5733 23.7467 65.7733 23.96 67.08 23.96C68.4667 23.96 69.7467 23.6933 70.92 23.16C72.0933 22.6 73.16 21.76 74.12 20.64L78.28 24.48C76.9467 26.1067 75.2933 27.3467 73.32 28.2C71.3733 29.0533 69.1733 29.48 66.72 29.48ZM95.2988 29V24.8L94.8988 23.88V16.36C94.8988 15.0267 94.4854 13.9867 93.6588 13.24C92.8588 12.4933 91.6188 12.12 89.9388 12.12C88.7921 12.12 87.6588 12.3067 86.5388 12.68C85.4454 13.0267 84.5121 13.5067 83.7388 14.12L81.4988 9.76C82.6721 8.93333 84.0854 8.29333 85.7388 7.84C87.3921 7.38667 89.0721 7.16 90.7788 7.16C94.0588 7.16 96.6054 7.93333 98.4188 9.48C100.232 11.0267 101.139 13.44 101.139 16.72V29H95.2988ZM88.7388 29.32C87.0588 29.32 85.6188 29.04 84.4188 28.48C83.2188 27.8933 82.2988 27.1067 81.6588 26.12C81.0188 25.1333 80.6988 24.0267 80.6988 22.8C80.6988 21.52 81.0054 20.4 81.6188 19.44C82.2588 18.48 83.2588 17.7333 84.6188 17.2C85.9788 16.64 87.7521 16.36 89.9388 16.36H95.6588V20H90.6188C89.1521 20 88.1388 20.24 87.5788 20.72C87.0454 21.2 86.7788 21.8 86.7788 22.52C86.7788 23.32 87.0854 23.96 87.6988 24.44C88.3388 24.8933 89.2054 25.12 90.2988 25.12C91.3388 25.12 92.2721 24.88 93.0988 24.4C93.9254 23.8933 94.5254 23.16 94.8988 22.2L95.8588 25.08C95.4054 26.4667 94.5788 27.52 93.3788 28.24C92.1788 28.96 90.6321 29.32 88.7388 29.32ZM106.786 29V7.48H112.746V13.56L111.906 11.8C112.546 10.28 113.573 9.13333 114.986 8.36C116.4 7.56 118.12 7.16 120.146 7.16V12.92C119.88 12.8933 119.64 12.88 119.426 12.88C119.213 12.8533 118.986 12.84 118.746 12.84C117.04 12.84 115.653 13.3333 114.586 14.32C113.546 15.28 113.026 16.7867 113.026 18.84V29H106.786ZM131.253 29.32C129.413 29.32 127.639 29.1067 125.933 28.68C124.253 28.2267 122.919 27.6667 121.933 27L124.013 22.52C124.999 23.1333 126.159 23.64 127.493 24.04C128.853 24.4133 130.186 24.6 131.493 24.6C132.933 24.6 133.946 24.4267 134.533 24.08C135.146 23.7333 135.453 23.2533 135.453 22.64C135.453 22.1333 135.213 21.76 134.733 21.52C134.279 21.2533 133.666 21.0533 132.893 20.92C132.119 20.7867 131.266 20.6533 130.333 20.52C129.426 20.3867 128.506 20.2133 127.573 20C126.639 19.76 125.786 19.4133 125.013 18.96C124.239 18.5067 123.613 17.8933 123.133 17.12C122.679 16.3467 122.453 15.3467 122.453 14.12C122.453 12.76 122.839 11.56 123.613 10.52C124.413 9.48 125.559 8.66667 127.053 8.08C128.546 7.46667 130.333 7.16 132.413 7.16C133.879 7.16 135.373 7.32 136.893 7.64C138.413 7.96 139.679 8.42667 140.693 9.04L138.613 13.48C137.573 12.8667 136.519 12.4533 135.453 12.24C134.413 12 133.399 11.88 132.413 11.88C131.026 11.88 130.013 12.0667 129.373 12.44C128.733 12.8133 128.413 13.2933 128.413 13.88C128.413 14.4133 128.639 14.8133 129.093 15.08C129.573 15.3467 130.199 15.56 130.973 15.72C131.746 15.88 132.586 16.0267 133.493 16.16C134.426 16.2667 135.359 16.44 136.293 16.68C137.226 16.92 138.066 17.2667 138.813 17.72C139.586 18.1467 140.213 18.7467 140.693 19.52C141.173 20.2667 141.413 21.2533 141.413 22.48C141.413 23.8133 141.013 25 140.213 26.04C139.413 27.0533 138.253 27.8533 136.733 28.44C135.239 29.0267 133.413 29.32 131.253 29.32Z" fill="white"/>
<path d="M53.32 69V41H59.8V63.72H73.84V69H53.32ZM77.0206 69V47.48H83.2606V69H77.0206ZM80.1406 44.48C78.994 44.48 78.0606 44.1467 77.3406 43.48C76.6206 42.8133 76.2606 41.9867 76.2606 41C76.2606 40.0133 76.6206 39.1867 77.3406 38.52C78.0606 37.8533 78.994 37.52 80.1406 37.52C81.2873 37.52 82.2206 37.84 82.9406 38.48C83.6606 39.0933 84.0206 39.8933 84.0206 40.88C84.0206 41.92 83.6606 42.7867 82.9406 43.48C82.2473 44.1467 81.314 44.48 80.1406 44.48ZM89.8119 69V47C89.8119 44.5733 90.5319 42.64 91.9719 41.2C93.4119 39.7333 95.4652 39 98.1319 39C99.0385 39 99.9052 39.0933 100.732 39.28C101.585 39.4667 102.305 39.76 102.892 40.16L101.252 44.68C100.905 44.44 100.519 44.2533 100.092 44.12C99.6652 43.9867 99.2119 43.92 98.7319 43.92C97.8252 43.92 97.1185 44.1867 96.6119 44.72C96.1319 45.2267 95.8919 46 95.8919 47.04V49.04L96.0519 51.72V69H89.8119ZM86.4919 52.76V47.96H101.412V52.76H86.4919ZM114.927 69.32C112.474 69.32 110.314 68.84 108.447 67.88C106.607 66.92 105.181 65.6133 104.167 63.96C103.154 62.28 102.647 60.3733 102.647 58.24C102.647 56.08 103.141 54.1733 104.127 52.52C105.141 50.84 106.514 49.5333 108.247 48.6C109.981 47.64 111.941 47.16 114.127 47.16C116.234 47.16 118.127 47.6133 119.807 48.52C121.514 49.4 122.861 50.68 123.847 52.36C124.834 54.0133 125.327 56 125.327 58.32C125.327 58.56 125.314 58.84 125.287 59.16C125.261 59.4533 125.234 59.7333 125.207 60H107.727V56.36H121.927L119.527 57.44C119.527 56.32 119.301 55.3467 118.847 54.52C118.394 53.6933 117.767 53.0533 116.967 52.6C116.167 52.12 115.234 51.88 114.167 51.88C113.101 51.88 112.154 52.12 111.327 52.6C110.527 53.0533 109.901 53.7067 109.447 54.56C108.994 55.3867 108.767 56.3733 108.767 57.52V58.48C108.767 59.6533 109.021 60.6933 109.527 61.6C110.061 62.48 110.794 63.16 111.727 63.64C112.687 64.0933 113.807 64.32 115.087 64.32C116.234 64.32 117.234 64.1467 118.087 63.8C118.967 63.4533 119.767 62.9333 120.487 62.24L123.807 65.84C122.821 66.96 121.581 67.8267 120.087 68.44C118.594 69.0267 116.874 69.32 114.927 69.32Z" fill="white"/>
<rect x="35" width="6" height="70" fill="white"/>
</svg>
