<svg width="30" height="30" viewBox="0 0 21 18" fill="none" xmlns="http://www.w3.org/2000/svg">
<path fill-rule="evenodd" clip-rule="evenodd" d="M18.5321 0.872826C18.8251 1.16583 18.8251 1.64083 18.5321 1.93383L2.75815 17.7068C2.61215 17.8538 2.42015 17.9268 2.22815 17.9268C2.03615 17.9268 1.84415 17.8538 1.69815 17.7068C1.40515 17.4138 1.40515 16.9398 1.69815 16.6468L3.67009 14.6761C2.25628 13.3829 1.05696 11.6397 0.176246 9.58703C0.0942461 9.39703 0.0942461 9.18303 0.176246 8.99403C1.19725 6.63003 2.63525 4.67303 4.33525 3.33603C7.62807 0.730075 11.9571 0.591751 15.3834 2.96135L17.4721 0.872826C17.7651 0.579826 18.2391 0.579826 18.5321 0.872826ZM18.1619 5.69383C18.8859 6.65483 19.5219 7.76583 20.0529 8.99183C20.1359 9.18183 20.1359 9.39783 20.0529 9.58683C17.9569 14.4438 14.2419 17.3428 10.1149 17.3428C9.17795 17.3428 8.24595 17.1908 7.34595 16.8918C6.95295 16.7608 6.73995 16.3358 6.87095 15.9428C7.00195 15.5488 7.42495 15.3398 7.81995 15.4678C8.56695 15.7168 9.33895 15.8428 10.1149 15.8428C13.5429 15.8428 16.6759 13.4008 18.5449 9.28983C18.0889 8.29083 17.5579 7.38583 16.9639 6.59583C16.7149 6.26483 16.7809 5.79383 17.1119 5.54483C17.4419 5.29583 17.9129 5.36383 18.1619 5.69383ZM5.26425 4.51403C3.82825 5.64403 2.59525 7.29003 1.68525 9.29203C2.47869 11.0445 3.52107 12.5224 4.7318 13.6138L6.8696 11.4762C6.43468 10.8363 6.20065 10.0818 6.20065 9.29163C6.20065 7.13163 7.95665 5.37463 10.1146 5.37463C10.8976 5.37463 11.6635 5.61303 12.3012 6.04393L14.3027 4.04253C11.4499 2.1983 7.97774 2.36654 5.26425 4.51403ZM13.3522 9.11463C13.7602 9.18763 14.0312 9.57763 13.9582 9.98563C13.6712 11.5786 12.4092 12.8426 10.8172 13.1326C10.7722 13.1406 10.7262 13.1446 10.6822 13.1446C10.3272 13.1446 10.0112 12.8906 9.94525 12.5286C9.87125 12.1216 10.1412 11.7306 10.5492 11.6566C11.5292 11.4786 12.3052 10.7006 12.4812 9.71963C12.5552 9.31263 12.9452 9.04463 13.3522 9.11463ZM10.1146 6.87463C8.78365 6.87463 7.70065 7.95863 7.70065 9.29163C7.70065 9.67701 7.79137 10.049 7.9624 10.3831L11.208 7.13707C10.8739 6.96679 10.498 6.87463 10.1146 6.87463Z" fill="white"/>
</svg>
