<svg width="70" height="70" viewBox="0 0 70 70" fill="none" xmlns="http://www.w3.org/2000/svg">
<path fill-rule="evenodd" clip-rule="evenodd" d="M55.4616 53.6973C52.7677 45.178 45.529 40.2966 35.5938 40.2966H35.5222C25.5606 40.2409 18.2848 45.1568 15.5856 53.6973L15.2727 54.689L16.1583 55.2299C21.35 58.3958 27.825 60 35.3976 60C35.4824 60 35.5673 60 35.6495 60C43.3283 60 49.6229 58.4383 54.8889 55.2299L55.7745 54.689L55.4616 53.6973Z" fill="white"/>
<path fill-rule="evenodd" clip-rule="evenodd" d="M35.0933 38.1889C42.3133 38.1889 48.1891 32.3159 48.1891 25.0958C48.1891 17.8731 42.3133 12 35.0933 12C27.8731 12 22 17.8731 22 25.0958C22 32.3159 27.8731 38.1889 35.0933 38.1889Z" fill="white"/>
<circle cx="35.6364" cy="38.1818" r="31.3182" stroke="white"/>
<path d="M51.2282 20.572V15.028H52.7762V20.572H51.2282ZM49.1522 18.532V17.068H54.8642V18.532H49.1522Z" fill="white"/>
</svg>
